Coordinates
version=1
nRows=15
nColumns=42
inDegrees=yes

Units are S.I. units (second, meters, Newtons, ...)
If the header above contains a line with 'inDegrees', this indicates whether rotational values are in degrees (yes) or radians (no).

endheader
time	pelvis_tilt	pelvis_list	pelvis_rotation	pelvis_tx	pelvis_ty	pelvis_tz	hip_flexion_r	hip_adduction_r	hip_rotation_r	knee_angle_r	knee_adduction_r	knee_angle_r_beta	ankle_angle_r	subtalar_angle_r	mtp_angle_r	hip_flexion_l	hip_adduction_l	hip_rotation_l	knee_angle_l	knee_adduction_l	knee_angle_l_beta	ankle_angle_l	subtalar_angle_l	mtp_angle_l	lumbar_extension	lumbar_bending	lumbar_rotation	arm_flex_r	arm_add_r	arm_rot_r	elbow_flex_r	pro_sup_r	wrist_flex_r	wrist_dev_r	arm_flex_l	arm_add_l	arm_rot_l	elbow_flex_l	pro_sup_l	wrist_flex_l	wrist_dev_l
      1.42000000	      4.31409201	     -2.50275057	     10.13358680	     -0.19282497	      0.85970263	      0.19586202	     12.12504211	     10.44898348	     -7.88504167	     29.60291445	     -4.01994289	      0.51666833	     21.40087206	    -15.30481044	     -7.54563447	     27.46845911	      4.03846914	      6.39620297	     67.21528873	     -7.46522336	      1.17312810	     18.28648196	    -19.46884883	     -7.54563447	    -33.24388023	      6.15693175	     -2.33862658	     15.73348106	     -9.63732012	     -5.64888377	     35.25931154	     90.00000001	      0.00000000	      0.00000000	     14.39937967	     -7.54465594	    -13.06969064	     27.08948577	     90.00000001	      0.00000000	      0.00000000
      1.43000000	      4.51533567	     -2.44978969	      9.99730497	     -0.18428181	      0.85996946	      0.19606085	     11.14784169	     10.65852929	     -7.82770391	     29.45041936	     -4.20712655	      0.51400678	     22.09286186	    -14.77404492	     -7.53885569	     28.00899659	      4.18564044	      5.43798144	     65.27861677	     -8.16867022	      1.13932679	     17.88005412	    -19.44337425	     -7.53885569	    -33.37349708	      6.08475716	     -2.16961356	     16.11188120	    -10.14332375	     -4.20504050	     35.97978948	     90.00000001	      0.00000000	      0.00000000	     14.53667854	     -7.13658029	    -15.17780130	     25.55336256	     90.00000001	      0.00000000	      0.00000000
      1.44000000	      4.64970533	     -2.38925230	      9.92171643	     -0.17588137	      0.85993958	      0.19616315	     10.32901755	     10.79181399	     -7.98618533	     29.45380507	     -4.40236606	      0.51406588	     22.60116132	    -14.58610136	     -7.53821908	     28.56889428	      4.37840277	      5.18568691	     63.26592824	     -8.23802326	      1.10419875	     17.61683590	    -19.42775624	     -7.53821908	    -33.45724749	      6.01142417	     -2.10515671	     16.70100519	    -10.24064481	     -4.18179084	     36.34123434	     90.00000001	      0.00000000	      0.00000000	     14.06518054	     -7.12607553	    -15.21827259	     25.43009757	     90.00000001	      0.00000000	      0.00000000
      1.45000000	      4.88044061	     -2.34760249	      9.82629043	     -0.16739273	      0.85994681	      0.19606903	      9.34181038	     10.96051703	     -8.01262376	     29.35899060	     -4.56929178	      0.51241105	     23.30297553	    -14.29867378	     -7.53746534	     28.96069052	      4.50927883	      4.72036164	     61.09906228	     -8.39711757	      1.06637981	     17.18136857	    -19.40531799	     -7.53746534	    -33.60581302	      6.03457407	     -2.04027966	     17.30333369	    -10.39656260	     -4.10167817	     36.75184135	     90.00000001	      0.00000000	      0.00000000	     13.62484929	     -7.04956494	    -15.28841969	     25.18445124	     90.00000001	      0.00000000	      0.00000000
      1.46000000	      5.12288707	     -2.35599289	      9.73551323	     -0.15894669	      0.85981428	      0.19606752	      8.34529222	     11.18031391	     -8.02689386	     29.23636070	     -4.67274133	      0.51027076	     24.03091423	    -13.93862131	     -7.53660255	     29.35053975	      4.53804818	      4.16074475	     58.84873788	     -8.58751686	      1.02710424	     16.69269271	    -19.37183337	     -7.53660255	    -33.79936781	      6.04439354	     -1.93425849	     17.89083814	    -10.58432047	     -3.93328982	     37.20105701	     90.00000001	      0.00000000	      0.00000000	     13.24640638	     -6.96297091	    -15.42595445	     24.84894156	     90.00000001	      0.00000000	      0.00000000
      1.47000000	      5.28119873	     -2.38691416	      9.62401164	     -0.15050790	      0.85941231	      0.19602046	      7.47436320	     11.40863225	     -8.10483162	     29.16337835	     -4.84337948	      0.50899697	     24.65948535	    -13.58584512	     -7.53582617	     29.78481125	      4.53946422	      3.68912022	     56.52411552	     -8.62833634	      0.98653192	     16.26347023	    -19.33958486	     -7.53582617	    -33.87122919	      6.08881504	     -1.79247124	     18.44033559	    -10.74588079	     -3.73660011	     37.64670171	     90.00000001	      0.00000000	      0.00000000	     12.87275843	     -6.90486275	    -15.58681107	     24.58910853	     90.00000001	      0.00000000	      0.00000000
      1.48000000	      5.46737399	     -2.43750693	      9.49982370	     -0.14207615	      0.85891058	      0.19585963	      6.56365477	     11.64372320	     -8.16829028	     29.07241552	     -5.00143294	      0.50740937	     25.34634335	    -13.18616291	     -7.53498258	     30.16047372	      4.48423407	      3.08719740	     54.11377836	     -8.67979887	      0.94446360	     15.79853440	    -19.29557937	     -7.53498258	    -33.98107345	      6.17344308	     -1.64704328	     19.00217468	    -10.94256193	     -3.46644375	     38.11682131	     90.00000001	      0.00000000	      0.00000000	     12.50888376	     -6.78730968	    -15.80751797	     24.30630449	     90.00000001	      0.00000000	      0.00000000
      1.49000000	      5.43010365	     -2.61169506	      9.34067353	     -0.13375239	      0.85786561	      0.19584475	      6.00653567	     12.04384098	     -8.27496272	     29.07886078	     -5.31856857	      0.50752186	     25.70902245	    -12.83234336	     -7.53450675	     30.83092561	      4.25846092	      2.59665208	     51.77269638	     -8.50322570	      0.90360401	     15.59915554	    -19.24412710	     -7.53450675	    -33.83120184	      6.33677681	     -1.43709065	     19.55008440	    -11.10498140	     -3.36301481	     38.50183276	     90.00000001	      0.00000000	      0.00000000	     12.03962193	     -6.63911032	    -15.88732180	     24.22444077	     90.00000001	      0.00000000	      0.00000000
      1.50000000	      5.79192348	     -2.57669215	      9.19033191	     -0.12521101	      0.85761877	      0.19551208	      4.78324680	     12.12815272	     -8.25268640	     28.86887411	     -5.31073428	      0.50385690	     26.72487733	    -12.26803881	     -7.53343803	     30.84243819	      4.21753596	      1.50603123	     49.08520367	     -8.74789594	      0.85669842	     14.87732542	    -19.17737891	     -7.53343803	    -34.16301536	      6.35420957	     -1.32389778	     20.09072246	    -11.32660480	     -2.80601377	     39.02721193	     90.00000001	      0.00000000	      0.00000000	     11.85663508	     -6.55885540	    -16.34648393	     23.83827182	     90.00000001	      0.00000000	      0.00000000
      1.51000000	      5.91312400	     -2.63185642	      9.00864995	     -0.11680201	      0.85680306	      0.19524807	      3.96942663	     12.28849815	     -8.39210519	     28.83942263	     -5.44856203	      0.50334288	     27.36989413	    -11.80850716	     -7.53255327	     31.13310554	      4.07366482	      0.66114724	     46.47849026	     -8.67286669	      0.81120269	     14.50270867	    -19.09165077	     -7.53255327	    -34.22141468	      6.41782940	     -1.14925282	     20.61320487	    -11.51816594	     -2.38438551	     39.46487191	     90.00000001	      0.00000000	      0.00000000	     11.56556699	     -6.42781110	    -16.72715003	     23.63944757	     90.00000001	      0.00000000	      0.00000000
      1.52000000	      6.01343904	     -2.69807432	      8.80730616	     -0.10837084	      0.85592914	      0.19500430	      3.16191510	     12.45705276	     -8.48884579	     28.79095379	     -5.58396351	      0.50249694	     28.01434846	    -11.31536722	     -7.53176235	     31.39606242	      3.88325766	     -0.27545685	     43.86884371	     -8.56278334	      0.76565576	     14.15130890	    -18.97986000	     -7.53176235	    -34.26592713	      6.48072016	     -0.97476068	     21.12507492	    -11.68490448	     -2.00714806	     39.85731660	     90.00000001	      0.00000000	      0.00000000	     11.29634692	     -6.31442784	    -17.07378451	     23.50537088	     90.00000001	      0.00000000	      0.00000000
      1.53000000	      6.02693088	     -2.80078584	      8.58030208	     -0.09994845	      0.85482596	      0.19477950	      2.48074032	     12.67624005	     -8.57636362	     28.76914422	     -5.80713855	      0.50211629	     28.53323982	    -10.89926814	     -7.53119882	     31.72285381	      3.64226179	     -1.19951281	     41.34977421	     -8.36742477	      0.72168970	     13.93083565	    -18.83197351	     -7.53119882	    -34.20229819	      6.57226125	     -0.73471466	     21.62176704	    -11.78080779	     -1.75777819	     40.19791735	     90.00000001	      0.00000000	      0.00000000	     11.00005615	     -6.23712186	    -17.29066013	     23.45449822	     90.00000001	      0.00000000	      0.00000000
      1.54000000	      6.18836699	     -2.83099847	      8.37722751	     -0.09146124	      0.85393796	      0.19437067	      1.62967966	     12.68892667	     -9.14020821	     28.73719933	     -5.97959932	      0.50155875	     29.63290506	     -9.21224120	     -7.52808966	     31.80644474	      3.44817733	     -2.25524559	     38.86845700	     -8.16707156	      0.67838255	     13.56501553	    -18.62723479	     -7.52808966	    -34.32975435	      6.59037907	     -0.64158576	     22.07073682	    -12.27119004	      0.03319120	     40.69490785	     90.00000001	      0.00000000	      0.00000000	     11.10220254	     -5.93767450	    -19.25464806	     22.81952880	     90.00000001	      0.00000000	      0.00000000
      1.55000000	      6.25436755	     -2.90233553	      8.15436798	     -0.08299181	      0.85288786	      0.19404597	      0.84579422	     12.82044159	     -9.12930758	     28.70678389	     -6.06470447	      0.50102790	     30.14427424	     -8.95143751	     -7.52737114	     31.94346007	      3.21140369	     -3.11191759	     36.54361760	     -7.81753948	      0.63780645	     13.31410098	    -18.35010563	     -7.52737114	    -34.35368734	      6.63777393	     -0.47413422	     22.57900363	    -12.28848467	      0.10298145	     40.96612432	     90.00000001	      0.00000000	      0.00000000	     10.83982021	     -5.84151853	    -19.45026617	     22.84448899	     90.00000001	      0.00000000	      0.00000000
      1.56000000	      6.31398714	     -2.98471896	      7.94124201	     -0.07445872	      0.85177274	      0.19368154	      0.06724621	     12.94519537	     -9.16100386	     28.66660355	     -6.14906531	      0.50032662	     30.66868655	     -8.54624264	     -7.52674106	     32.05146142	      2.97221828	     -3.90050478	     34.44354671	     -7.44488648	      0.60115330	     13.13773910	    -17.96495691	     -7.52674106	    -34.35821321	      6.69061118	     -0.30955195	     23.05302708	    -12.30941844	      0.24032885	     41.20265979	     90.00000001	      0.00000000	      0.00000000	     10.62076122	     -5.76034039	    -19.62854420	     22.84926482	     90.00000001	      0.00000000	      0.00000000
